<?xml version="1.0" encoding="UTF-8"?>
<!DOCTYPE svg PUBLIC "-//W3C//DTD SVG 1.1//EN" "http://www.w3.org/Graphics/SVG/1.1/DTD/svg11.dtd">
<!-- Creator: CorelDRAW 2021.5 -->
<svg xmlns="http://www.w3.org/2000/svg" xml:space="preserve" width="1.64861in" height="0.441756in" version="1.1" style="shape-rendering:geometricPrecision; text-rendering:geometricPrecision; image-rendering:optimizeQuality; fill-rule:evenodd; clip-rule:evenodd"
viewBox="0 0 2821.73 756.1"
 xmlns:xlink="http://www.w3.org/1999/xlink"
 xmlns:xodm="http://www.corel.com/coreldraw/odm/2003">
 <defs>
  <style type="text/css">
   <![CDATA[
    .fil1 {fill:none}
    .fil0 {fill:#373435;fill-rule:nonzero}
   ]]>
  </style>
 </defs>
 <g id="Layer_x0020_1">
  <metadata id="CorelCorpID_0Corel-Layer"/>
  <g id="_1641005916256">
   <path class="fil0" d="M136.97 140.9l67.03 0 87.41 128.44 0 -128.44 67.62 0 0 232.17 -67.62 0 -86.97 -127.46 0 127.46 -67.46 0 0 -232.17zm269.57 0l192.22 0 0 49.58 -120.32 0 0 36.91 111.62 0 0 47.35 -111.62 0 0 45.73 123.83 0 0 52.59 -195.73 0 0 -232.17zm210.44 0l68.11 0 24.53 129.68 35.79 -129.68 67.95 0 35.94 129.68 24.54 -129.68 67.78 0 -51.14 232.17 -70.32 0 -40.71 -146.16 -40.54 146.16 -70.32 0 -51.62 -232.17zm432.49 0l68.1 0 24.54 129.68 35.79 -129.68 67.94 0 35.95 129.68 24.53 -129.68 67.78 0 -51.13 232.17 -70.32 0 -40.71 -146.16 -40.54 146.16 -70.32 0 -51.62 -232.17zm491.08 193.84l-81.73 0 -11.25 38.33 -73.29 0 87.24 -232.17 78.22 0 87.29 232.17 -75.08 0 -11.4 -38.33zm-15.03 -50.22l-25.68 -83.46 -25.51 83.46 51.19 0zm73.46 -143.62l79.67 0 46.87 78.38 46.87 -78.38 79.19 0 -90.28 134.92 0 97.24 -71.89 0 0 -97.24 -90.43 -134.92z"/>
   <path class="fil0" d="M158.46 622.31l0 -106.45 -35.25 0 0 -21.69 94.43 0 0 21.69 -35.17 0 0 106.45 -24.02 0zm105.86 0l0 -53.94 -43.52 -74.2 28.13 0 27.98 50.69 27.39 -50.69 27.63 0 -43.69 74.38 0 53.76 -23.94 0zm79.55 0l0 -128.14 38.48 0c14.58,0 24.1,0.66 28.52,1.94 6.81,1.91 12.53,6.09 17.12,12.53 4.6,6.44 6.89,14.77 6.89,24.95 0,7.88 -1.33,14.5 -3.98,19.84 -2.65,5.37 -6,9.58 -10.1,12.65 -4.06,3.05 -8.22,5.07 -12.43,6.06 -5.73,1.22 -14.02,1.85 -24.9,1.85l-15.63 0 0 48.34 -23.98 0zm23.98 -106.45l0 36.33 13.12 0c9.46,0 15.8,-0.65 18.98,-1.99 3.17,-1.34 5.67,-3.43 7.49,-6.29 1.8,-2.87 2.71,-6.17 2.71,-9.97 0,-4.66 -1.27,-8.5 -3.81,-11.54 -2.52,-3.02 -5.75,-4.93 -9.63,-5.67 -2.88,-0.6 -8.63,-0.87 -17.26,-0.87l-11.6 0zm86.74 106.45l0 -128.14 88.09 0 0 21.69 -64.1 0 0 28.4 59.65 0 0 21.57 -59.65 0 0 34.87 66.37 0 0 21.6 -90.36 0zm104.64 -41.68l23.34 -2.47c1.39,8.48 4.24,14.68 8.55,18.65 4.29,3.94 10.07,5.94 17.38,5.94 7.72,0 13.55,-1.76 17.46,-5.31 3.93,-3.52 5.89,-7.63 5.89,-12.35 0,-3.04 -0.83,-5.61 -2.49,-7.72 -1.63,-2.15 -4.5,-4 -8.63,-5.55 -2.8,-1.07 -9.22,-2.92 -19.2,-5.61 -12.86,-3.43 -21.88,-7.67 -27.06,-12.68 -7.3,-7.03 -10.95,-15.63 -10.95,-25.77 0,-6.54 1.71,-12.61 5.14,-18.32 3.43,-5.67 8.39,-9.99 14.83,-12.97 6.48,-2.95 14.25,-4.45 23.38,-4.45 14.95,0 26.15,3.52 33.71,10.57 7.53,7.07 11.48,16.46 11.87,28.25l-23.99 1.13c-1.02,-6.59 -3.23,-11.33 -6.61,-14.2 -3.38,-2.89 -8.44,-4.33 -15.19,-4.33 -6.97,0 -12.45,1.52 -16.38,4.62 -2.55,1.97 -3.82,4.62 -3.82,7.94 0,3.05 1.19,5.64 3.57,7.78 3.02,2.75 10.37,5.61 22.06,8.56 11.67,2.99 20.3,6.06 25.9,9.22 5.59,3.19 9.96,7.52 13.14,13.04 3.15,5.52 4.73,12.32 4.73,20.4 0,7.34 -1.88,14.23 -5.67,20.61 -3.8,6.42 -9.13,11.19 -16.05,14.29 -6.92,3.13 -15.55,4.68 -25.87,4.68 -15.02,0 -26.56,-3.73 -34.62,-11.22 -8.05,-7.49 -12.86,-18.4 -14.41,-32.73zm116.81 41.68l0 -128.14 88.09 0 0 21.69 -64.1 0 0 28.4 59.65 0 0 21.57 -59.65 0 0 34.87 66.37 0 0 21.6 -90.36 0zm137.45 0l0 -106.45 -35.25 0 0 -21.69 94.43 0 0 21.69 -35.16 0 0 106.45 -24.02 0zm101.4 0l0 -106.45 -35.25 0 0 -21.69 94.43 0 0 21.69 -35.17 0 0 106.45 -24.02 0zm74.68 0l0 -128.14 88.09 0 0 21.69 -64.1 0 0 28.4 59.65 0 0 21.57 -59.65 0 0 34.87 66.37 0 0 21.6 -90.36 0zm110.77 0l0 -128.14 50.53 0c12.7,0 21.91,1.17 27.67,3.46 5.75,2.3 10.38,6.38 13.83,12.26 3.46,5.91 5.18,12.62 5.18,20.2 0,9.62 -2.63,17.57 -7.86,23.84 -5.22,6.24 -13.08,10.2 -23.52,11.81 5.21,3.28 9.49,6.87 12.87,10.77 3.38,3.91 7.91,10.83 13.64,20.8l14.53 25 -28.69 0 -17.35 -27.9c-6.17,-9.97 -10.37,-16.23 -12.64,-18.83 -2.26,-2.59 -4.67,-4.35 -7.22,-5.34 -2.54,-0.96 -6.56,-1.44 -12.09,-1.44l-4.84 0 0 53.5 -24.02 0zm24.02 -73.96l17.73 0c11.51,0 18.71,-0.51 21.59,-1.55 2.84,-1.04 5.09,-2.86 6.72,-5.43 1.6,-2.57 2.43,-5.75 2.43,-9.6 0,-4.33 -1.08,-7.79 -3.21,-10.44 -2.13,-2.65 -5.14,-4.33 -9.05,-5.04 -1.93,-0.27 -7.78,-0.42 -17.51,-0.42l-18.7 0 0 32.49zm89.73 32.28l23.34 -2.47c1.39,8.48 4.24,14.68 8.55,18.65 4.29,3.94 10.07,5.94 17.38,5.94 7.72,0 13.56,-1.76 17.46,-5.31 3.93,-3.52 5.89,-7.63 5.89,-12.35 0,-3.04 -0.83,-5.61 -2.49,-7.72 -1.63,-2.15 -4.51,-4 -8.63,-5.55 -2.8,-1.07 -9.21,-2.92 -19.2,-5.61 -12.86,-3.43 -21.88,-7.67 -27.06,-12.68 -7.3,-7.03 -10.96,-15.63 -10.96,-25.77 0,-6.54 1.71,-12.61 5.14,-18.32 3.43,-5.67 8.39,-9.99 14.83,-12.97 6.48,-2.95 14.25,-4.45 23.38,-4.45 14.94,0 26.14,3.52 33.7,10.57 7.53,7.07 11.48,16.46 11.87,28.25l-23.99 1.13c-1.02,-6.59 -3.23,-11.33 -6.61,-14.2 -3.38,-2.89 -8.44,-4.33 -15.19,-4.33 -6.97,0 -12.45,1.52 -16.38,4.62 -2.55,1.97 -3.82,4.62 -3.82,7.94 0,3.05 1.19,5.64 3.58,7.78 3.01,2.75 10.37,5.61 22.05,8.56 11.67,2.99 20.31,6.06 25.9,9.22 5.59,3.19 9.96,7.52 13.14,13.04 3.15,5.52 4.73,12.32 4.73,20.4 0,7.34 -1.88,14.23 -5.67,20.61 -3.79,6.42 -9.13,11.19 -16.05,14.29 -6.92,3.13 -15.55,4.68 -25.87,4.68 -15.02,0 -26.56,-3.73 -34.61,-11.22 -8.06,-7.49 -12.87,-18.4 -14.41,-32.73zm268.04 26.05l-13.78 18.94c-6.75,-3.55 -13.22,-8.44 -19.45,-14.68 -4.82,4.65 -9.91,8.11 -15.33,10.32 -5.4,2.2 -11.81,3.31 -19.29,3.31 -14.8,0 -25.92,-4.47 -33.4,-13.46 -5.78,-6.92 -8.66,-14.91 -8.66,-23.96 0,-8.2 2.27,-15.6 6.81,-22.14 4.54,-6.56 11.32,-12.26 20.34,-17.1 -4.04,-5.19 -7.11,-10.14 -9.16,-14.82 -2.05,-4.68 -3.07,-9.13 -3.07,-13.34 0,-7.72 2.88,-14.32 8.63,-19.69 5.75,-5.4 13.95,-8.09 24.6,-8.09 10.27,0 18.29,2.84 24.08,8.48 5.78,5.63 8.69,12.56 8.69,20.7 0,5.19 -1.44,10.11 -4.32,14.77 -2.85,4.68 -8.63,9.93 -17.34,15.84l16.54 23.5c1.93,-3.73 3.63,-8.59 5.03,-14.59l20.59 5.04c-2.04,7.88 -3.85,13.64 -5.36,17.28 -1.5,3.64 -3.13,6.68 -4.84,9.13 2.52,2.57 5.81,5.36 9.85,8.44 4.01,3.07 6.97,5.07 8.85,6.09zm-62 -69.66l6.17 -5.07c4.54,-3.79 6.81,-7.55 6.81,-11.27 0,-3.17 -1.11,-5.85 -3.29,-8.06 -2.18,-2.21 -5.15,-3.31 -8.88,-3.31 -3.6,0 -6.45,0.98 -8.5,2.92 -2.05,1.94 -3.1,4.2 -3.1,6.77 0,3.04 1.74,6.71 5.2,11.01l5.59 7.01zm-8.91 26.64c-5.26,2.87 -9.16,6.29 -11.76,10.32 -2.61,4.03 -3.91,8.11 -3.91,12.32 0,5.3 1.64,9.64 4.84,12.98 3.21,3.34 7.53,5.01 12.92,5.01 3.57,0 7,-0.75 10.3,-2.27 3.29,-1.49 6.89,-4 10.79,-7.52l-23.18 -30.85zm131.81 58.66l0 -128.14 38.48 0c14.58,0 24.1,0.66 28.52,1.94 6.81,1.91 12.53,6.09 17.13,12.53 4.6,6.44 6.89,14.77 6.89,24.95 0,7.88 -1.33,14.5 -3.98,19.84 -2.65,5.37 -6,9.58 -10.1,12.65 -4.06,3.05 -8.21,5.07 -12.43,6.06 -5.72,1.22 -14.02,1.85 -24.9,1.85l-15.63 0 0 48.34 -23.99 0zm23.99 -106.45l0 36.33 13.11 0c9.46,0 15.8,-0.65 18.98,-1.99 3.17,-1.34 5.67,-3.43 7.49,-6.29 1.8,-2.87 2.72,-6.17 2.72,-9.97 0,-4.66 -1.27,-8.5 -3.82,-11.54 -2.52,-3.02 -5.75,-4.93 -9.63,-5.67 -2.88,-0.6 -8.63,-0.87 -17.26,-0.87l-11.59 0zm86.79 106.45l0 -128.14 50.53 0c12.7,0 21.91,1.17 27.67,3.46 5.75,2.3 10.38,6.38 13.83,12.26 3.46,5.91 5.17,12.62 5.17,20.2 0,9.62 -2.63,17.57 -7.86,23.84 -5.22,6.24 -13.08,10.2 -23.52,11.81 5.2,3.28 9.49,6.87 12.87,10.77 3.38,3.91 7.91,10.83 13.64,20.8l14.53 25 -28.69 0 -17.35 -27.9c-6.17,-9.97 -10.37,-16.23 -12.64,-18.83 -2.27,-2.59 -4.68,-4.35 -7.22,-5.34 -2.55,-0.96 -6.56,-1.44 -12.09,-1.44l-4.84 0 0 53.5 -24.02 0zm24.02 -73.96l17.74 0c11.51,0 18.71,-0.51 21.58,-1.55 2.85,-1.04 5.09,-2.86 6.72,-5.43 1.61,-2.57 2.44,-5.75 2.44,-9.6 0,-4.33 -1.08,-7.79 -3.21,-10.44 -2.13,-2.65 -5.15,-4.33 -9.05,-5.04 -1.94,-0.27 -7.78,-0.42 -17.51,-0.42l-18.71 0 0 32.49zm90.95 10.69c0,-13.07 1.8,-24.02 5.42,-32.88 2.71,-6.5 6.39,-12.38 11.06,-17.57 4.68,-5.16 9.8,-9.02 15.35,-11.52 7.42,-3.4 15.94,-5.07 25.63,-5.07 17.51,0 31.51,5.85 42.02,17.57 10.51,11.7 15.77,27.98 15.77,48.84 0,20.7 -5.23,36.87 -15.66,48.56 -10.43,11.66 -24.37,17.51 -41.81,17.51 -17.68,0 -31.73,-5.82 -42.17,-17.43 -10.42,-11.63 -15.63,-27.65 -15.63,-48.03zm24.7 -0.87c0,14.49 3.13,25.51 9.33,33 6.23,7.49 14.11,11.21 23.69,11.21 9.54,0 17.41,-3.7 23.54,-11.16 6.11,-7.43 9.18,-18.56 9.18,-33.41 0,-14.68 -2.99,-25.63 -8.94,-32.88 -5.98,-7.21 -13.92,-10.83 -23.79,-10.83 -9.91,0 -17.88,3.67 -23.94,10.98 -6.03,7.31 -9.08,18.32 -9.08,33.09zm185.32 17.03l23.24 7.94c-3.57,13.99 -9.49,24.37 -17.79,31.17 -8.27,6.77 -18.81,10.18 -31.57,10.18 -15.77,0 -28.75,-5.82 -38.9,-17.43 -10.15,-11.63 -15.24,-27.53 -15.24,-47.67 0,-21.33 5.11,-37.89 15.32,-49.7 10.22,-11.79 23.63,-17.7 40.28,-17.7 14.53,0 26.34,4.62 35.42,13.9 5.42,5.46 9.47,13.34 12.17,23.6l-23.76 6.11c-1.39,-6.66 -4.32,-11.9 -8.8,-15.75 -4.45,-3.85 -9.88,-5.76 -16.24,-5.76 -8.79,0 -15.96,3.4 -21.44,10.24 -5.48,6.8 -8.21,17.84 -8.21,33.11 0,16.19 2.68,27.74 8.11,34.6 5.39,6.89 12.42,10.32 21.05,10.32 6.39,0 11.87,-2.18 16.46,-6.56 4.6,-4.36 7.88,-11.25 9.91,-20.61zm43.85 47.11l0 -128.14 88.09 0 0 21.69 -64.1 0 0 28.4 59.65 0 0 21.57 -59.65 0 0 34.87 66.37 0 0 21.6 -90.36 0zm104.64 -41.68l23.35 -2.47c1.38,8.48 4.23,14.68 8.55,18.65 4.29,3.94 10.07,5.94 17.38,5.94 7.72,0 13.55,-1.76 17.46,-5.31 3.93,-3.52 5.89,-7.63 5.89,-12.35 0,-3.04 -0.83,-5.61 -2.49,-7.72 -1.63,-2.15 -4.51,-4 -8.63,-5.55 -2.8,-1.07 -9.22,-2.92 -19.2,-5.61 -12.86,-3.43 -21.88,-7.67 -27.06,-12.68 -7.3,-7.03 -10.96,-15.63 -10.96,-25.77 0,-6.54 1.72,-12.61 5.15,-18.32 3.43,-5.67 8.38,-9.99 14.83,-12.97 6.48,-2.95 14.25,-4.45 23.38,-4.45 14.95,0 26.15,3.52 33.71,10.57 7.53,7.07 11.48,16.46 11.87,28.25l-23.99 1.13c-1.02,-6.59 -3.23,-11.33 -6.62,-14.2 -3.37,-2.89 -8.44,-4.33 -15.19,-4.33 -6.97,0 -12.45,1.52 -16.37,4.62 -2.55,1.97 -3.82,4.62 -3.82,7.94 0,3.05 1.19,5.64 3.57,7.78 3.02,2.75 10.37,5.61 22.06,8.56 11.67,2.99 20.3,6.06 25.9,9.22 5.59,3.19 9.96,7.52 13.14,13.04 3.15,5.52 4.73,12.32 4.73,20.4 0,7.34 -1.88,14.23 -5.67,20.61 -3.79,6.42 -9.13,11.19 -16.04,14.29 -6.92,3.13 -15.55,4.68 -25.88,4.68 -15.01,0 -26.56,-3.73 -34.61,-11.22 -8.05,-7.49 -12.86,-18.4 -14.41,-32.73zm110.73 0l23.35 -2.47c1.38,8.48 4.23,14.68 8.54,18.65 4.29,3.94 10.07,5.94 17.39,5.94 7.72,0 13.55,-1.76 17.45,-5.31 3.93,-3.52 5.89,-7.63 5.89,-12.35 0,-3.04 -0.83,-5.61 -2.49,-7.72 -1.63,-2.15 -4.51,-4 -8.63,-5.55 -2.8,-1.07 -9.21,-2.92 -19.2,-5.61 -12.86,-3.43 -21.88,-7.67 -27.06,-12.68 -7.3,-7.03 -10.96,-15.63 -10.96,-25.77 0,-6.54 1.71,-12.61 5.14,-18.32 3.43,-5.67 8.39,-9.99 14.83,-12.97 6.48,-2.95 14.25,-4.45 23.38,-4.45 14.94,0 26.15,3.52 33.7,10.57 7.53,7.07 11.48,16.46 11.87,28.25l-24 1.13c-1.02,-6.59 -3.23,-11.33 -6.61,-14.2 -3.38,-2.89 -8.44,-4.33 -15.19,-4.33 -6.97,0 -12.45,1.52 -16.37,4.62 -2.55,1.97 -3.82,4.62 -3.82,7.94 0,3.05 1.19,5.64 3.57,7.78 3.01,2.75 10.37,5.61 22.05,8.56 11.67,2.99 20.31,6.06 25.9,9.22 5.59,3.19 9.96,7.52 13.14,13.04 3.16,5.52 4.73,12.32 4.73,20.4 0,7.34 -1.88,14.23 -5.67,20.61 -3.79,6.42 -9.13,11.19 -16.05,14.29 -6.92,3.13 -15.55,4.68 -25.87,4.68 -15.02,0 -26.56,-3.73 -34.61,-11.22 -8.05,-7.49 -12.87,-18.4 -14.41,-32.73zm111.93 -21.59c0,-13.07 1.8,-24.02 5.43,-32.88 2.71,-6.5 6.39,-12.38 11.06,-17.57 4.68,-5.16 9.8,-9.02 15.35,-11.52 7.42,-3.4 15.94,-5.07 25.63,-5.07 17.51,0 31.51,5.85 42.02,17.57 10.51,11.7 15.77,27.98 15.77,48.84 0,20.7 -5.23,36.87 -15.66,48.56 -10.43,11.66 -24.37,17.51 -41.81,17.51 -17.68,0 -31.73,-5.82 -42.17,-17.43 -10.42,-11.63 -15.63,-27.65 -15.63,-48.03zm24.71 -0.87c0,14.49 3.13,25.51 9.33,33 6.23,7.49 14.11,11.21 23.68,11.21 9.55,0 17.41,-3.7 23.55,-11.16 6.11,-7.43 9.18,-18.56 9.18,-33.41 0,-14.68 -2.99,-25.63 -8.94,-32.88 -5.98,-7.21 -13.92,-10.83 -23.8,-10.83 -9.91,0 -17.87,3.67 -23.93,10.98 -6.03,7.31 -9.08,18.32 -9.08,33.09zm109.35 64.14l0 -128.14 50.52 0c12.7,0 21.91,1.17 27.67,3.46 5.75,2.3 10.38,6.38 13.83,12.26 3.46,5.91 5.18,12.62 5.18,20.2 0,9.62 -2.63,17.57 -7.86,23.84 -5.23,6.24 -13.09,10.2 -23.52,11.81 5.2,3.28 9.49,6.87 12.86,10.77 3.38,3.91 7.91,10.83 13.65,20.8l14.52 25 -28.69 0 -17.35 -27.9c-6.17,-9.97 -10.37,-16.23 -12.63,-18.83 -2.27,-2.59 -4.68,-4.35 -7.23,-5.34 -2.54,-0.96 -6.55,-1.44 -12.09,-1.44l-4.84 0 0 53.5 -24.02 0zm24.02 -73.96l17.73 0c11.52,0 18.71,-0.51 21.59,-1.55 2.85,-1.04 5.09,-2.86 6.72,-5.43 1.61,-2.57 2.44,-5.75 2.44,-9.6 0,-4.33 -1.08,-7.79 -3.21,-10.44 -2.13,-2.65 -5.14,-4.33 -9.05,-5.04 -1.93,-0.27 -7.77,-0.42 -17.51,-0.42l-18.71 0 0 32.49zm89.73 32.28l23.35 -2.47c1.38,8.48 4.23,14.68 8.54,18.65 4.29,3.94 10.07,5.94 17.39,5.94 7.72,0 13.55,-1.76 17.45,-5.31 3.93,-3.52 5.89,-7.63 5.89,-12.35 0,-3.04 -0.83,-5.61 -2.49,-7.72 -1.63,-2.15 -4.51,-4 -8.63,-5.55 -2.8,-1.07 -9.21,-2.92 -19.2,-5.61 -12.86,-3.43 -21.88,-7.67 -27.06,-12.68 -7.3,-7.03 -10.96,-15.63 -10.96,-25.77 0,-6.54 1.71,-12.61 5.14,-18.32 3.43,-5.67 8.39,-9.99 14.83,-12.97 6.48,-2.95 14.25,-4.45 23.38,-4.45 14.94,0 26.15,3.52 33.7,10.57 7.53,7.07 11.48,16.46 11.87,28.25l-24 1.13c-1.02,-6.59 -3.23,-11.33 -6.61,-14.2 -3.38,-2.89 -8.44,-4.33 -15.19,-4.33 -6.97,0 -12.45,1.52 -16.37,4.62 -2.55,1.97 -3.82,4.62 -3.82,7.94 0,3.05 1.19,5.64 3.57,7.78 3.01,2.75 10.37,5.61 22.05,8.56 11.67,2.99 20.31,6.06 25.9,9.22 5.59,3.19 9.96,7.52 13.14,13.04 3.16,5.52 4.73,12.32 4.73,20.4 0,7.34 -1.88,14.23 -5.67,20.61 -3.79,6.42 -9.13,11.19 -16.05,14.29 -6.92,3.13 -15.55,4.68 -25.87,4.68 -15.02,0 -26.56,-3.73 -34.61,-11.22 -8.05,-7.49 -12.87,-18.4 -14.41,-32.73z"/>
  </g>
  <rect class="fil1" width="2821.73" height="756.1"/>
 </g>
</svg>
